<svg height="512" viewBox="0 0 512 512" width="512" xmlns="http://www.w3.org/2000/svg"><g id="filled_outline" data-name="filled outline"><path d="m446.207 480h-142.207v-32l8-16v-120h168v134.207a33.793 33.793 0 0 1 -33.793 33.793z" fill="#008df6"/><path d="m386 360h94a0 0 0 0 1 0 0v88.951a31.049 31.049 0 0 1 -31.049 31.049h-88.951a0 0 0 0 1 0 0v-94a26 26 0 0 1 26-26z" fill="#0060c1"/><path d="m480 312h-168l7.124-56.992a8 8 0 0 1 7.938-7.008h137.876a8 8 0 0 1 7.938 7.008z" fill="#eaeae8"/><circle cx="440" cy="440" fill="#cbcbcb" r="48"/><circle cx="440" cy="440" fill="#eaeae8" r="16"/><path d="m400 280h32v48h-32z" fill="#cbcbcb"/><path d="m400 216h64v32h-64z" fill="#0060c1"/><path d="m24 462a30 30 0 0 1 30-30h84a30 30 0 0 1 30 30v2h-144z" fill="#008df6"/><path d="m112 432h-32l48-304h32z" fill="#eaeae8"/><path d="m129.68 320-7.57 48h-32l7.57-48z" fill="#eaeae8"/><path d="m129.68 320-7.57 48h-32l7.57-48z" fill="#cbcbcb"/><path d="m24 464h144v24h-144z" fill="#0060c1"/><path d="m128 128 9.014-58.6a53.534 53.534 0 0 1 52.912-45.4h1.419a55.514 55.514 0 0 1 55.1 63.7c-2.733 18.22-5.643 37.619-8.13 54.2a36.668 36.668 0 0 0 36.268 42.1h11.659a22.137 22.137 0 0 0 21.61-17.335l.705-3.174a65.757 65.757 0 0 1 64.19-51.491h21.845a53.409 53.409 0 0 1 53.408 53.408v50.592h-32v-45.058a26.942 26.942 0 0 0 -26.942-26.942h-15.446a26.941 26.941 0 0 0 -26.3 21.1 65 65 0 0 1 -63.456 50.9h-14.8a66.358 66.358 0 0 1 -65.624-76.2l9.061-60.4a20.374 20.374 0 0 0 -20.15-23.4 20.372 20.372 0 0 0 -19.888 15.954l-12.455 56.046z" fill="#008df6"/><path d="m488 411.19v-99.19c0-.027 0-.053 0-.08 0-.136-.012-.272-.021-.409s-.015-.287-.031-.428c0-.025 0-.05-.006-.075l-7.124-56.992a16.02 16.02 0 0 0 -8.818-12.367v-25.649a8 8 0 0 0 -8-8h-8v-42.592a61.477 61.477 0 0 0 -61.408-61.408h-21.844a73.755 73.755 0 0 0 -72 57.755l-.706 3.175a14.052 14.052 0 0 1 -13.8 11.07h-11.659a28.667 28.667 0 0 1 -28.355-32.92l8.13-54.2a63.516 63.516 0 0 0 -63.013-72.88h-1.419a61.535 61.535 0 0 0 -60.819 52.179l-55.943 355.821h-19.164a38.043 38.043 0 0 0 -38 38v26a8 8 0 0 0 8 8h144a8 8 0 0 0 8-8v-26a38.043 38.043 0 0 0 -38-38h-16.638l58.9-350.311a12.373 12.373 0 0 1 24.315 4.52l-9.06 60.4a74.357 74.357 0 0 0 73.537 85.391h14.8a73 73 0 0 0 71.266-57.167 18.83 18.83 0 0 1 18.492-14.833h15.446a18.963 18.963 0 0 1 18.942 18.942v37.058h-8a8 8 0 0 0 -8 8v24h-64.938a16.025 16.025 0 0 0 -15.876 14.016l-7.124 56.992c0 .025 0 .05-.006.075-.016.141-.023.285-.031.428s-.02.273-.021.409v.08 118.111l-7.155 14.311a7.994 7.994 0 0 0 -.849 3.578v32a8 8 0 0 0 8 8s106.709-.032 107.056-.078a55.974 55.974 0 0 0 76.944-76.732zm-372.731-51.19h-15.8l5.052-32h15.8zm44.731 120h-128v-8h128zm-.832-24h-126.336a22.038 22.038 0 0 1 21.168-16h84a22.038 22.038 0 0 1 21.168 16zm-69.806-32 7.579-48h15.8l-7.579 48zm33.486-112h-15.8l27.789-176h15.8zm266.21-176h-15.446a34.733 34.733 0 0 0 -34.11 27.362 56.664 56.664 0 0 1 -55.647 44.638h-14.8a58.358 58.358 0 0 1 -57.712-67.015l9.06-60.4a28.373 28.373 0 0 0 -55.757-10.364l-11.063 49.779h-16.258l7.6-49.388a45.288 45.288 0 0 1 45.001-38.612h1.419a47.516 47.516 0 0 1 47.19 54.511l-8.13 54.2a44.667 44.667 0 0 0 44.178 51.289h11.659a29.958 29.958 0 0 0 29.42-23.6l.705-3.174a57.413 57.413 0 0 1 56.381-45.226h21.844a45.459 45.459 0 0 1 45.408 45.408v42.592h-16v-37.058a34.982 34.982 0 0 0 -34.942-34.942zm18.942 88h48v16h-48zm-8 32h64.938l6 48h-30.938v-24a8 8 0 0 0 -8-8h-32a8 8 0 0 0 -8 8v24h-70.938l6-48zm24 64h-16v-32h16zm-112 129.889 7.155-14.311a7.994 7.994 0 0 0 .845-3.578v-112h72v8a8 8 0 0 0 8 8h32a8 8 0 0 0 8-8v-8h32v32h-86a34.038 34.038 0 0 0 -34 34v86h-40zm56-63.889a18.021 18.021 0 0 1 18-18h86v26.083a55.957 55.957 0 0 0 -77.917 77.917h-26.083zm72 94a40 40 0 1 1 40-40 40.045 40.045 0 0 1 -40 40z"/><path d="m440 416a24 24 0 1 0 24 24 24.027 24.027 0 0 0 -24-24zm0 32a8 8 0 1 1 8-8 8.009 8.009 0 0 1 -8 8z"/></g></svg>