<svg id="Capa_1" enable-background="new 0 0 512 512" height="512" viewBox="0 0 512 512" width="512" xmlns="http://www.w3.org/2000/svg"><g><g><path d="m391.053 426h-361.553c-12.15 0-22-9.85-22-22v-296c0-12.15 9.85-22 22-22h361.553z" fill="#9facba"/><path d="m482.5 426h-91.447v-340h91.447c12.15 0 22 9.85 22 22v296c0 12.15-9.85 22-22 22z" fill="#596c76"/><path d="m482.5 86h-34c12.15 0 22 9.85 22 22v296c0 12.15-9.85 22-22 22h34c12.15 0 22-9.85 22-22v-296c0-12.15-9.85-22-22-22z" fill="#465a61"/><path d="m41.5 385v-258c0-3.866 3.134-7 7-7h301.553c3.866 0 7 3.134 7 7v258c0 3.866-3.134 7-7 7h-301.553c-3.866 0-7-3.134-7-7z" fill="#fedba6"/><path d="m425.053 388v-27c0-2.209 1.791-4 4-4h37.447c2.209 0 4 1.791 4 4v27c0 2.209-1.791 4-4 4h-37.447c-2.209 0-4-1.791-4-4z" fill="#9facba"/><path d="m425.053 325.638v-88.252c0-2.209 1.791-4 4-4h37.447c2.209 0 4 1.791 4 4v88.252c0 2.209-1.791 4-4 4h-37.447c-2.209 0-4-1.791-4-4z" fill="#f47c7c"/><path d="m350.053 120h-28.346c3.866 0 7 3.134 7 7v258c0 3.866-3.134 7-7 7h28.346c3.866 0 7-3.134 7-7v-258c0-3.866-3.134-7-7-7z" fill="#fece85"/></g><g><path d="m350.053 399.5c7.995 0 14.5-6.505 14.5-14.5v-258c0-7.995-6.505-14.5-14.5-14.5h-301.553c-7.995 0-14.5 6.505-14.5 14.5v258c0 7.995 6.505 14.5 14.5 14.5zm-301.053-272h300.553v257h-300.553z"/><path d="m482.5 78.5h-17.895c-4.143 0-7.5 3.358-7.5 7.5s3.357 7.5 7.5 7.5h17.895c7.995 0 14.5 6.505 14.5 14.5v296c0 7.995-6.505 14.5-14.5 14.5h-83.947v-325h31.053c4.143 0 7.5-3.358 7.5-7.5s-3.357-7.5-7.5-7.5c-16.611 0-383.533 0-400.105 0-16.268 0-29.501 13.234-29.501 29.5v207.124c0 4.142 3.357 7.5 7.5 7.5s7.5-3.358 7.5-7.5v-207.124c0-7.995 6.505-14.5 14.5-14.5h354.053v325h-354.053c-7.995 0-14.5-6.505-14.5-14.5v-53.876c0-4.142-3.357-7.5-7.5-7.5s-7.5 3.358-7.5 7.5v53.876c0 16.266 13.233 29.5 29.5 29.5h453c16.267 0 29.5-13.233 29.5-29.5v-296c0-16.267-13.233-29.5-29.5-29.5z"/><path d="m466.5 349.5h-37.447c-6.341 0-11.5 5.159-11.5 11.5v27c0 6.341 5.159 11.5 11.5 11.5h37.447c6.341 0 11.5-5.159 11.5-11.5v-27c0-6.341-5.159-11.5-11.5-11.5zm-3.5 35h-30.447v-20h30.447z"/><path d="m462 127.5h8.5c4.143 0 7.5-3.358 7.5-7.5s-3.357-7.5-7.5-7.5h-8.5c-4.143 0-7.5 3.358-7.5 7.5s3.357 7.5 7.5 7.5z"/><path d="m425.053 112.5c-4.143 0-7.5 3.358-7.5 7.5s3.357 7.5 7.5 7.5h8.5c4.143 0 7.5-3.358 7.5-7.5s-3.357-7.5-7.5-7.5z"/><path d="m462 155.847h8.5c4.143 0 7.5-3.358 7.5-7.5s-3.357-7.5-7.5-7.5h-8.5c-4.143 0-7.5 3.358-7.5 7.5s3.357 7.5 7.5 7.5z"/><path d="m425.053 155.847h8.5c4.143 0 7.5-3.358 7.5-7.5s-3.357-7.5-7.5-7.5h-8.5c-4.143 0-7.5 3.358-7.5 7.5s3.357 7.5 7.5 7.5z"/><path d="m462 184.193h8.5c4.143 0 7.5-3.358 7.5-7.5s-3.357-7.5-7.5-7.5h-8.5c-4.143 0-7.5 3.358-7.5 7.5s3.357 7.5 7.5 7.5z"/><path d="m425.053 184.193h8.5c4.143 0 7.5-3.358 7.5-7.5s-3.357-7.5-7.5-7.5h-8.5c-4.143 0-7.5 3.358-7.5 7.5s3.357 7.5 7.5 7.5z"/><path d="m462 212.54h8.5c4.143 0 7.5-3.358 7.5-7.5s-3.357-7.5-7.5-7.5h-8.5c-4.143 0-7.5 3.358-7.5 7.5s3.357 7.5 7.5 7.5z"/><path d="m425.053 212.54h8.5c4.143 0 7.5-3.358 7.5-7.5s-3.357-7.5-7.5-7.5h-8.5c-4.143 0-7.5 3.358-7.5 7.5s3.357 7.5 7.5 7.5z"/><path d="m478 237.386c0-6.341-5.159-11.5-11.5-11.5h-37.447c-6.341 0-11.5 5.159-11.5 11.5v88.252c0 6.341 5.159 11.5 11.5 11.5h37.447c6.341 0 11.5-5.159 11.5-11.5zm-15 84.752h-30.447v-81.252h30.447z"/></g></g></svg>