<svg height="511pt" viewBox="-33 1 511 511.99999" width="511pt" xmlns="http://www.w3.org/2000/svg"><path d="m317.660156 247.464844-1.425781 42.667968h-119.46875l1.425781-42.667968-34.132812-34.132813h153.601562zm0 0" fill="#ebebeb"/><path d="m215.257812 281.601562h85.335938c37.699219 0 68.265625 30.5625 68.265625 68.265626v34.132812c0 37.703125-30.566406 68.265625-68.265625 68.265625h-85.335938c-37.703124 0-68.265624-30.5625-68.265624-68.265625v-34.132812c0-37.703126 30.5625-68.265626 68.265624-68.265626zm0 0" fill="#ebebeb"/><path d="m198.191406 247.464844h126.574219v34.136718h-126.574219zm0 0" fill="#f7ba61"/><path d="m102.898438 8.535156h281.601562v153.597656c0 9.425782-7.640625 17.066407-17.066406 17.066407h-264.535156zm0 0" fill="#d9d9d9"/><path d="m146.992188 384c0 37.703125 30.5625 68.265625 68.265624 68.265625h85.335938c30.582031-.003906 57.429688-20.347656 65.703125-49.789063.300781-2.46875.589844-4.953124.769531-7.476562l.367188-36.601562h-220.441406zm0 0" fill="#834b10"/><path d="m401.566406 247.464844h-85.332031v34.136718h85.332031v42.664063h34.132813v-42.664063c0-18.851562-15.28125-34.136718-34.132813-34.136718zm0 0" fill="#f3af3e"/><path d="m112.859375 452.265625v-443.730469h-103.824219v494.929688h375.464844v-34.132813c0-9.425781-7.640625-17.066406-17.066406-17.066406zm0 0" fill="#b9b9b9"/><path d="m350.367188 179.199219h-203.375v-17.066407c0-9.425781 7.640624-17.066406 17.066406-17.066406h169.242187c9.425781 0 17.066407 7.640625 17.066407 17.066406zm0 0" fill="#b9b9b9"/><path d="m265.035156 85.332031c0 9.425781-7.644531 17.066407-17.070312 17.066407-9.425782 0-17.066406-7.640626-17.066406-17.066407s7.640624-17.066406 17.066406-17.066406c9.425781 0 17.070312 7.640625 17.070312 17.066406zm0 0" fill="#99d8aa"/><path d="m179.699219 85.332031c0 9.425781-7.640625 17.066407-17.066407 17.066407-9.425781 0-17.066406-7.640626-17.066406-17.066407s7.640625-17.066406 17.066406-17.066406c9.425782 0 17.066407 7.640625 17.066407 17.066406zm0 0" fill="#fbedbf"/><path d="m350.367188 85.332031c0 9.425781-7.640626 17.066407-17.066407 17.066407s-17.066406-7.640626-17.066406-17.066407 7.640625-17.066406 17.066406-17.066406 17.066407 7.640625 17.066407 17.066406zm0 0" fill="#ea6b65"/><path d="m43.167969 42.667969h34.132812v409.597656h-34.132812zm0 0" fill="#b3e4e8"/><path d="m43.167969 384h34.132812v68.265625h-34.132812zm0 0" fill="#64a8b2"/><path d="m43.167969 315.734375h34.132812v68.265625h-34.132812zm0 0" fill="#69b0bb"/><path d="m43.167969 247.464844h34.132812v68.269531h-34.132812zm0 0" fill="#6fbbc6"/><path d="m43.167969 179.199219h34.132812v68.265625h-34.132812zm0 0" fill="#a8d6da"/><path d="m43.167969 110.933594h34.132812v68.265625h-34.132812zm0 0" fill="#aedee2"/><path d="m393.035156 503.464844v-34.132813c0-14.136719-11.464844-25.597656-25.601562-25.597656h-18.679688c18.101563-14.546875 28.632813-36.511719 28.636719-59.734375v-34.132812c-.003906-23.222657-10.535156-45.1875-28.636719-59.734376h45.703125v34.132813c0 4.714844 3.820313 8.535156 8.535157 8.535156h34.132812c4.710938 0 8.535156-3.820312 8.535156-8.535156v-42.664063c-.03125-23.554687-19.117187-42.640624-42.667968-42.667968h-76.800782v-25.601563c0-4.710937-3.820312-8.53125-8.53125-8.53125h-153.601562c-4.714844 0-8.53125 3.820313-8.53125 8.535157 0 2.261718.898437 4.429687 2.496094 6.03125l31.636718 31.632812v26.546875c-30.644531 10.855469-51.144531 39.8125-51.203125 72.320313v34.132812c.007813 23.222656 10.539063 45.1875 28.640625 59.734375h-45.707031v-256h246.042969c14.136718 0 25.601562-11.460937 25.601562-25.601563v-153.597656c0-4.714844-3.824218-8.535156-8.535156-8.535156h-375.464844c-4.714844 0-8.535156 3.820312-8.535156 8.535156v494.929688c0 4.714844 3.820312 8.535156 8.535156 8.535156h375.464844c4.714844 0 8.535156-3.820312 8.535156-8.535156zm-51.203125-332.796875h-186.304687v-8.535157c0-4.710937 3.820312-8.53125 8.53125-8.53125h169.242187c4.710938 0 8.53125 3.820313 8.53125 8.53125zm-220.441406-153.601563h254.574219v145.066406c0 4.714844-3.820313 8.535157-8.53125 8.535157h-8.535156v-8.535157c0-14.136718-11.460938-25.597656-25.597657-25.597656h-169.242187c-14.136719 0-25.601563 11.460938-25.601563 25.597656v8.535157h-17.066406zm204.800781 238.933594h76.800782c14.136718 0 25.601562 11.460938 25.601562 25.601562v34.132813h-17.066406v-34.132813c0-4.714843-3.824219-8.535156-8.535156-8.535156h-76.800782zm-141.53125-34.132812h124.464844v17.066406h-107.398438zm124.464844 34.132812v17.066406h-102.398438v-17.066406zm-153.597656 93.867188c.035156-32.976563 26.757812-59.695313 59.730468-59.734376h85.335938c32.972656.039063 59.695312 26.757813 59.730469 59.734376v8.53125h-204.796875zm0 34.132812v-8.535156h204.796875v8.535156c-.035157 32.972656-26.757813 59.695312-59.730469 59.734375h-85.335938c-32.972656-.039063-59.695312-26.761719-59.730468-59.734375zm220.4375 110.933594h-358.398438v-477.867188h86.757813v435.199219c0 4.714844 3.820312 8.535156 8.535156 8.535156h254.574219c4.710937 0 8.53125 3.820313 8.53125 8.53125zm0 0"/><path d="m247.964844 110.933594c14.140625 0 25.601562-11.460938 25.601562-25.601563 0-14.136719-11.460937-25.597656-25.601562-25.597656-14.136719 0-25.597656 11.460937-25.597656 25.597656 0 14.140625 11.460937 25.601563 25.597656 25.601563zm0-34.132813c4.714844 0 8.535156 3.820313 8.535156 8.53125 0 4.714844-3.820312 8.535157-8.535156 8.535157-4.710938 0-8.53125-3.820313-8.53125-8.535157 0-4.710937 3.820312-8.53125 8.53125-8.53125zm0 0"/><path d="m162.632812 110.933594c14.140626 0 25.601563-11.460938 25.601563-25.601563 0-14.136719-11.460937-25.597656-25.601563-25.597656-14.136718 0-25.597656 11.460937-25.597656 25.597656 0 14.140625 11.460938 25.601563 25.597656 25.601563zm0-34.132813c4.714844 0 8.535157 3.820313 8.535157 8.53125 0 4.714844-3.820313 8.535157-8.535157 8.535157-4.710937 0-8.53125-3.820313-8.53125-8.535157 0-4.710937 3.820313-8.53125 8.53125-8.53125zm0 0"/><path d="m333.300781 110.933594c14.136719 0 25.597657-11.460938 25.597657-25.601563 0-14.136719-11.460938-25.597656-25.597657-25.597656-14.140625 0-25.601562 11.460937-25.601562 25.597656 0 14.140625 11.460937 25.601563 25.601562 25.601563zm0-34.132813c4.710938 0 8.53125 3.820313 8.53125 8.53125 0 4.714844-3.820312 8.535157-8.53125 8.535157-4.714843 0-8.535156-3.820313-8.535156-8.535157 0-4.710937 3.820313-8.53125 8.535156-8.53125zm0 0"/><path d="m77.300781 34.132812h-34.132812c-4.714844 0-8.535157 3.820313-8.535157 8.535157v409.597656c0 4.714844 3.820313 8.535156 8.535157 8.535156h34.132812c4.710938 0 8.53125-3.820312 8.53125-8.535156v-409.597656c0-4.714844-3.820312-8.535157-8.53125-8.535157zm-8.535156 409.601563h-17.066406v-51.199219h17.066406zm0-68.269531h-17.066406v-51.199219h17.066406zm0-68.265625h-17.066406v-51.199219h17.066406zm0-68.265625h-17.066406v-51.199219h17.066406zm0-68.265625h-17.066406v-51.203125h17.066406zm0-68.269531h-17.066406v-51.199219h17.066406zm0 0"/></svg>