<svg id="Layer_1" enable-background="new 0 0 512 512" height="512" viewBox="0 0 512 512" width="512" xmlns="http://www.w3.org/2000/svg"><g><g><path d="m421.667 405.1h66.833c8.837 0 16-7.163 16-16v-17.417c0-4.418-3.582-8-8-8h-74.833z" fill="#365e7d"/><path d="m496.5 363.683h-23c4.418 0 8 3.582 8 8v17.417c0 8.837-7.164 16-16 16h23c8.836 0 16-7.163 16-16v-17.417c0-4.418-3.582-8-8-8z" fill="#2b4d66"/><path d="m90.008 203v-13.269c-.938-6.34-3.713-12.305-7.998-17.17-15.423-17.511-24.78-40.492-24.78-65.661 0-55.124 44.871-99.767 100.08-99.398h164.276c55.209-.369 100.08 44.274 100.08 99.398 0 25.169-9.358 48.15-24.781 65.661-4.285 4.865-7.06 10.83-7.999 17.171v13.268z" fill="#ffd597"/><path d="m156.611 40.633c-17.695.004-34.328 6.896-46.84 19.408-12.515 12.516-19.408 29.158-19.408 46.859 0 16.131 5.864 31.673 16.512 43.762 9.648 10.955 15.395 24.676 16.446 39.07v13.268h232.179l.075-13.266c1.051-14.394 6.797-28.116 16.446-39.071 10.648-12.09 16.512-27.631 16.512-43.762 0-36.539-29.727-66.267-66.267-66.267z" fill="#fff2e3"/><path d="m321.586 7.502h-23c55.209-.369 100.08 44.274 100.08 99.398 0 25.169-9.358 48.15-24.781 65.661-4.285 4.865-7.06 10.83-7.998 17.171v13.268h23v-13.268c.938-6.341 3.713-12.306 7.998-17.171 15.423-17.511 24.781-40.492 24.781-65.661.001-55.124-44.87-99.767-100.08-99.398z" fill="#fcc16d"/><path d="m322.267 40.633h-23c36.54 0 66.267 29.727 66.267 66.267 0 16.131-5.864 31.673-16.512 43.762-9.648 10.955-15.395 24.677-16.446 39.071l-.076 13.267h23l.075-13.266c1.051-14.394 6.797-28.116 16.446-39.071 10.648-12.09 16.512-27.631 16.512-43.762 0-36.54-29.727-66.268-66.266-66.268z" fill="#fee7c9"/><path d="m77.398 504.5h-36.765c-9.149 0-16.567-7.417-16.567-16.567v-27.933h74.55v11.367l-5.146 20.585c-1.843 7.374-8.47 12.548-16.072 12.548z" fill="#365e7d"/><path d="m401.468 504.5h36.765c9.15 0 16.567-7.417 16.567-16.567v-27.933h-74.55v11.367l5.146 20.585c1.844 7.374 8.47 12.548 16.072 12.548z" fill="#365e7d"/><path d="m454.8 449.667h-430.733v-227.934c0-17.673 14.327-32 32-32h366.733c17.673 0 32 14.327 32 32z" fill="#e2d8ec"/><circle cx="82.05" cy="380.25" fill="#ffac52" r="24.85"/><path d="m57.202 222.825h.005z"/><path d="m57.224 222.846h.006z"/><path d="m431.8 460v27.933c0 9.15-7.417 16.567-16.567 16.567h23c9.149 0 16.567-7.417 16.567-16.567v-27.933z" fill="#2b4d66"/><path d="m422.8 189.733h-23c17.673 0 32 14.327 32 32v227.933h23v-227.933c0-17.673-14.327-32-32-32z" fill="#d5c6e4"/><path d="m463.367 471.367h-447.867c-4.418 0-8-3.582-8-8v-17.133c0-4.418 3.582-8 8-8h447.867c4.418 0 8 3.582 8 8v17.133c0 4.418-3.582 8-8 8z" fill="#4a80aa"/><path d="m463.367 438.233h-23c4.418 0 8 3.582 8 8v17.133c0 4.418-3.582 8-8 8h23c4.418 0 8-3.582 8-8v-17.133c0-4.418-3.582-8-8-8z" fill="#407093"/><path d="m82.05 355.4c-4.151 0-8.061 1.023-11.5 2.823 7.933 4.15 13.35 12.454 13.35 22.027 0 9.574-5.417 17.877-13.35 22.027 3.439 1.799 7.349 2.823 11.5 2.823 13.724 0 24.85-11.126 24.85-24.85s-11.126-24.85-24.85-24.85z" fill="#f29e4c"/></g><g><path d="m82.05 347.9c-17.838 0-32.35 14.512-32.35 32.35s14.512 32.35 32.35 32.35 32.351-14.512 32.351-32.35c-.001-17.838-14.513-32.35-32.351-32.35zm0 49.7c-9.566 0-17.35-7.783-17.35-17.35s7.783-17.35 17.35-17.35 17.351 7.783 17.351 17.35c-.001 9.567-7.784 17.35-17.351 17.35z"/><path d="m496.5 356.183h-34.2v-134.45c0-21.78-17.72-39.5-39.5-39.5h-23.593c.919-1.674 2.023-3.256 3.307-4.715 17.188-19.514 26.653-44.594 26.653-70.619 0-28.689-11.21-55.624-31.565-75.843-20.352-20.217-47.327-31.22-76.016-31.054h-118.419c-4.143 0-7.5 3.358-7.5 7.5s3.357 7.5 7.5 7.5h118.469c.213-.001.422-.002.635-.002 24.436 0 47.414 9.468 64.761 26.699 17.499 17.382 27.136 40.538 27.136 65.201 0 22.373-8.136 43.931-22.909 60.705-3.781 4.293-6.577 9.271-8.286 14.629h-18.743c2.123-9.792 6.744-19.033 13.42-26.614 11.855-13.459 18.384-30.762 18.384-48.719 0-40.675-33.092-73.767-73.767-73.767h-165.656-.001c-19.697.004-38.215 7.676-52.143 21.605-13.931 13.931-21.604 32.456-21.604 52.161 0 17.957 6.528 35.26 18.384 48.719 6.675 7.58 11.297 16.822 13.419 26.614h-18.741c-1.71-5.358-4.506-10.337-8.287-14.629-14.773-16.773-22.908-38.333-22.908-60.705 0-24.664 9.637-47.819 27.137-65.202 17.496-17.38 40.72-26.859 65.443-26.696h15.857c4.143 0 7.5-3.358 7.5-7.5s-3.357-7.5-7.5-7.5h-15.808c-.246 0-.49-.001-.737-.001-28.422 0-55.149 11.013-75.327 31.056-20.356 20.219-31.566 47.154-31.566 75.844 0 26.024 9.465 51.104 26.652 70.619 1.285 1.458 2.389 3.041 3.307 4.714h-23.622c-21.78 0-39.5 17.72-39.5 39.5v209h-1.066c-8.547 0-15.5 6.953-15.5 15.5v17.133c0 8.547 6.953 15.5 15.5 15.5h1.066v9.066c0 13.271 10.797 24.067 24.067 24.067h36.765c11.063 0 20.665-7.497 23.349-18.23l3.725-14.903h30.411c4.143 0 7.5-3.358 7.5-7.5s-3.357-7.5-7.5-7.5h-119.383c-.275 0-.5-.224-.5-.5v-17.133c0-.276.225-.5.5-.5h447.866c.275 0 .5.224.5.5v17.133c0 .276-.225.5-.5.5h-298.482c-4.143 0-7.5 3.358-7.5 7.5s3.357 7.5 7.5 7.5h209.51l3.726 14.903c2.684 10.733 12.284 18.23 23.348 18.23h36.766c13.271 0 24.066-10.796 24.066-24.067v-9.066h1.066c8.547 0 15.5-6.953 15.5-15.5v-17.133c0-8.547-6.953-15.5-15.5-15.5h-1.066v-18.133h26.2c12.958 0 23.5-10.542 23.5-23.5v-17.417c0-8.547-6.953-15.5-15.5-15.5zm-407.489 122.684-2.816 11.266c-1.011 4.043-4.628 6.868-8.796 6.868h-36.765c-5 0-9.067-4.067-9.067-9.067v-9.066h57.444zm358.289 9.066c0 5-4.067 9.067-9.066 9.067h-36.766c-4.168 0-7.784-2.824-8.795-6.868l-2.816-11.265h57.443zm-334.797-342.228c-9.44-10.719-14.64-24.5-14.64-38.805 0-15.698 6.112-30.456 17.212-41.556 11.095-11.096 25.847-17.208 41.537-17.211h165.654c32.404 0 58.767 26.363 58.767 58.767 0 14.305-5.199 28.086-14.641 38.805-9.08 10.311-15.131 23.078-17.435 36.528h-219.018c-2.305-13.451-8.356-26.218-17.436-36.528zm-80.937 285.028v-209c0-13.509 10.99-24.5 24.5-24.5h366.734c13.51 0 24.5 10.991 24.5 24.5v209zm465.434-41.633c0 4.687-3.814 8.5-8.5 8.5h-26.2v-26.417h34.2c.275 0 .5.224.5.5z"/><path d="m405.1 215.367h-331.333c-13.271 0-24.066 10.796-24.066 24.066v16.567c0 4.142 3.357 7.5 7.5 7.5s7.5-3.358 7.5-7.5v-16.567c0-4.999 4.067-9.066 9.066-9.066h331.333c5 0 9.067 4.067 9.067 9.066v16.567c0 4.142 3.357 7.5 7.5 7.5s7.5-3.358 7.5-7.5v-16.567c0-13.27-10.797-24.066-24.067-24.066z"/><path d="m322.267 132.533c-4.143 0-7.5 3.358-7.5 7.5 0 5-4.067 9.067-9.066 9.067s-9.066-4.067-9.066-9.067c0-4.142-3.357-7.5-7.5-7.5s-7.5 3.358-7.5 7.5c0 13.271 10.796 24.067 24.066 24.067s24.066-10.796 24.066-24.067c0-4.142-3.358-7.5-7.5-7.5z"/><path d="m189.733 99.4c-4.143 0-7.5 3.358-7.5 7.5 0 4.999-4.067 9.067-9.066 9.067-5 0-9.067-4.067-9.067-9.067 0-4.142-3.357-7.5-7.5-7.5s-7.5 3.358-7.5 7.5c0 13.271 10.797 24.067 24.067 24.067s24.066-10.796 24.066-24.067c0-4.142-3.357-7.5-7.5-7.5z"/></g></g></svg>