<?xml version="1.0" encoding="iso-8859-1"?>
<!-- Generator: Adobe Illustrator 19.0.0, SVG Export Plug-In . SVG Version: 6.00 Build 0)  -->
<svg version="1.1" id="Capa_1" xmlns="http://www.w3.org/2000/svg" xmlns:xlink="http://www.w3.org/1999/xlink" x="0px" y="0px"
	 viewBox="0 0 511.999 511.999" style="enable-background:new 0 0 511.999 511.999;" xml:space="preserve">
<g>
	<path style="fill:#4B3F4E;" d="M103.694,472.435v24.048c0,4.427,3.589,8.016,8.016,8.016h16.032c4.427,0,8.016-3.589,8.016-8.016
		v-24.048H103.694z"/>
	<path style="fill:#4B3F4E;" d="M376.242,472.435v24.048c0,4.427,3.589,8.016,8.016,8.016h16.032c4.427,0,8.016-3.589,8.016-8.016
		v-24.048H376.242z"/>
</g>
<path style="fill:#C9C6CA;" d="M416.323,472.435H95.677c-8.854,0-16.032-7.178-16.032-16.032V23.532
	c0-8.854,7.178-16.032,16.032-16.032h320.645c8.854,0,16.032,7.178,16.032,16.032v432.871
	C432.355,465.258,425.177,472.435,416.323,472.435z"/>
<path style="fill:#B7B2B8;" d="M111.71,7.5H95.677c-8.854,0-16.032,7.178-16.032,16.032v432.871c0,8.854,7.178,16.032,16.032,16.032
	h320.645c8.854,0,16.032-7.178,16.032-16.032v-16.032h-248.5c-39.845,0-72.145-32.301-72.145-72.145L111.71,7.5L111.71,7.5z"/>
<rect x="79.64" y="143.77" style="fill:#5D5360;" width="352.71" height="264.53"/>
<g>
	<circle style="fill:#867E88;" cx="292.07" cy="91.67" r="20.04"/>
	<circle style="fill:#867E88;" cx="364.22" cy="91.67" r="20.04"/>
	<circle style="fill:#867E88;" cx="147.78" cy="91.67" r="20.04"/>
	<circle style="fill:#867E88;" cx="219.93" cy="91.67" r="20.04"/>
</g>
<path style="fill:#9C969E;" d="M376.242,175.839H135.758c-4.427,0-8.016-3.589-8.016-8.016V151.79c0-4.427,3.589-8.016,8.016-8.016
	h240.484c4.427,0,8.016,3.589,8.016,8.016v16.032C384.258,172.25,380.669,175.839,376.242,175.839z"/>
<g>
	<path style="fill:#4B3F4E;" d="M376.242,376.242H135.758c-4.427,0-8.016-3.589-8.016-8.016V215.919
		c0-4.427,3.589-8.016,8.016-8.016h240.484c4.427,0,8.016,3.589,8.016,8.016v152.306
		C384.258,372.653,380.669,376.242,376.242,376.242z"/>
	<path style="fill:#4B3F4E;" d="M111.71,368.226V143.774H79.645v264.532h44.23C116.199,396.841,111.71,383.06,111.71,368.226z"/>
</g>
<path d="M416.323,0H95.677C82.702,0,72.145,10.557,72.145,23.532v432.871c0,12.976,10.557,23.532,23.532,23.532h0.516v16.548
	c0,8.556,6.96,15.516,15.516,15.516h16.032c8.556,0,15.517-6.96,15.517-15.516v-16.548h225.483v16.548
	c0,8.556,6.961,15.516,15.517,15.516h16.032c8.556,0,15.516-6.96,15.516-15.516v-16.548h0.516c12.976,0,23.532-10.557,23.532-23.532
	V23.532C439.855,10.557,429.298,0,416.323,0z M95.677,15h320.646c4.705,0,8.532,3.828,8.532,8.532v8.532h-16.553
	c-4.142,0-7.5,3.358-7.5,7.5s3.358,7.5,7.5,7.5h16.553v89.21H87.145v-89.21h289.093c4.142,0,7.5-3.358,7.5-7.5s-3.358-7.5-7.5-7.5
	H87.145v-8.532C87.145,18.828,90.973,15,95.677,15z M376.758,151.791v16.032c0,0.285-0.232,0.516-0.517,0.516H135.758
	c-0.285,0-0.517-0.231-0.517-0.516v-16.032c0-0.285,0.232-0.516,0.517-0.516h240.483
	C376.526,151.274,376.758,151.506,376.758,151.791z M128.258,496.484c0,0.285-0.232,0.516-0.517,0.516h-16.032
	c-0.285,0-0.516-0.231-0.516-0.516v-16.548h17.065V496.484z M400.807,496.484c0,0.285-0.231,0.516-0.516,0.516h-16.032
	c-0.285,0-0.517-0.231-0.517-0.516v-16.548h17.065V496.484z M416.323,464.936H95.677c-4.705,0-8.532-3.828-8.532-8.532v-40.597
	h16.553c4.142,0,7.5-3.358,7.5-7.5s-3.358-7.5-7.5-7.5H87.145V151.274h33.123c-0.006,0.173-0.026,0.342-0.026,0.516v16.032
	c0,8.556,6.961,15.516,15.517,15.516h240.483c8.556,0,15.517-6.96,15.517-15.516V151.79c0-0.174-0.02-0.343-0.026-0.516h33.123
	v249.532H135.762c-4.142,0-7.5,3.358-7.5,7.5s3.358,7.5,7.5,7.5h289.093v40.597C424.855,461.108,421.027,464.936,416.323,464.936z"
	/>
<path d="M292.073,64.129c-15.186,0-27.541,12.354-27.541,27.541c0,15.186,12.354,27.54,27.541,27.54
	c15.186,0,27.54-12.354,27.54-27.54C319.613,76.483,307.258,64.129,292.073,64.129z M292.073,104.209
	c-6.915,0-12.541-5.625-12.541-12.54s5.625-12.541,12.541-12.541c6.915,0,12.54,5.625,12.54,12.541
	C304.613,98.584,298.987,104.209,292.073,104.209z"/>
<path d="M364.218,64.129c-15.186,0-27.541,12.354-27.541,27.541c0,15.186,12.354,27.54,27.541,27.54s27.541-12.354,27.541-27.54
	C391.758,76.483,379.404,64.129,364.218,64.129z M364.218,104.209c-6.915,0-12.541-5.625-12.541-12.54s5.625-12.541,12.541-12.541
	s12.541,5.625,12.541,12.541C376.758,98.584,371.133,104.209,364.218,104.209z"/>
<path d="M147.782,64.129c-15.186,0-27.541,12.354-27.541,27.541c0,15.186,12.354,27.54,27.541,27.54s27.541-12.354,27.541-27.54
	C175.323,76.483,162.968,64.129,147.782,64.129z M147.782,104.209c-6.915,0-12.541-5.625-12.541-12.54s5.625-12.541,12.541-12.541
	s12.541,5.625,12.541,12.541C160.323,98.584,154.697,104.209,147.782,104.209z"/>
<path d="M219.927,64.129c-15.186,0-27.54,12.354-27.54,27.541c0,15.186,12.354,27.54,27.54,27.54s27.541-12.354,27.541-27.54
	C247.468,76.483,235.113,64.129,219.927,64.129z M219.927,104.209c-6.915,0-12.54-5.625-12.54-12.54s5.625-12.541,12.54-12.541
	s12.541,5.625,12.541,12.541C232.468,98.584,226.842,104.209,219.927,104.209z"/>
<path d="M376.242,383.742c8.556,0,15.517-6.96,15.517-15.516V215.919c0-8.556-6.961-15.516-15.517-15.516H135.758
	c-8.556,0-15.517,6.96-15.517,15.516v152.306c0,8.556,6.961,15.516,15.517,15.516h240.484V383.742z M135.242,368.226V215.919
	c0-0.285,0.232-0.516,0.517-0.516h240.483c0.285,0,0.517,0.231,0.517,0.516v152.306c0,0.285-0.232,0.516-0.517,0.516H135.758
	C135.474,368.742,135.242,368.51,135.242,368.226z"/>
<path d="M159.807,327.629h192.387c4.142,0,7.5-3.358,7.5-7.5s-3.358-7.5-7.5-7.5H159.807c-4.142,0-7.5,3.358-7.5,7.5
	S155.665,327.629,159.807,327.629z"/>
<path d="M159.807,271.516h192.387c4.142,0,7.5-3.358,7.5-7.5s-3.358-7.5-7.5-7.5H159.807c-4.142,0-7.5,3.358-7.5,7.5
	S155.665,271.516,159.807,271.516z"/>
<g>
</g>
<g>
</g>
<g>
</g>
<g>
</g>
<g>
</g>
<g>
</g>
<g>
</g>
<g>
</g>
<g>
</g>
<g>
</g>
<g>
</g>
<g>
</g>
<g>
</g>
<g>
</g>
<g>
</g>
</svg>
