<?xml version="1.0" encoding="iso-8859-1"?>
<!-- Generator: Adobe Illustrator 19.0.0, SVG Export Plug-In . SVG Version: 6.00 Build 0)  -->
<svg version="1.1" id="Capa_1" xmlns="http://www.w3.org/2000/svg" xmlns:xlink="http://www.w3.org/1999/xlink" x="0px" y="0px"
	 viewBox="0 0 512 512" style="enable-background:new 0 0 512 512;" xml:space="preserve">
<g>
	<path style="fill:#FFE100;" d="M108.63,45.141V25.6c0-9.426-7.641-17.067-17.067-17.067S74.496,16.174,74.496,25.6v48.896
		L108.63,45.141z"/>
	<path style="fill:#FFA800;" d="M153.6,249.002v24.065c-0.028,9.414-7.652,17.039-17.067,17.067H102.4
		c-9.414-0.028-17.039-7.653-17.067-17.067V258.56L128,252.587L153.6,249.002z"/>
	<path style="fill:#FFE100;" d="M128,252.587v20.48c-0.028,9.414-7.653,17.039-17.067,17.067H102.4
		c-9.414-0.028-17.039-7.653-17.067-17.067V258.56L128,252.587z"/>
	<path style="fill:#FFA800;" d="M406.528,25.6H202.411C133.035,25.6,76.8,86.698,76.8,162.133v63.146
		c-0.459,9.447,3.232,18.622,10.106,25.119c6.874,6.496,16.243,9.665,25.649,8.674l343.296-52.224
		c8.026-1.569,13.734-8.722,13.483-16.896V93.867C469.334,56.149,441.174,25.6,406.528,25.6z M426.667,136.533
		c-0.014,4.707-3.826,8.52-8.533,8.533H273.067c-9.053,0.002-17.737-3.593-24.139-9.995c-6.402-6.402-9.997-15.085-9.995-24.139
		V102.4c-0.002-9.053,3.593-17.737,9.995-24.139c6.402-6.402,15.085-9.997,24.139-9.995h119.467
		c9.053-0.002,17.737,3.593,24.139,9.995s9.997,15.085,9.995,24.139V136.533z"/>
	<path style="fill:#FFFFFF;" d="M372.395,25.6H168.278c-69.376,0-125.611,61.098-125.611,136.533v63.146
		c-0.459,9.447,3.232,18.622,10.106,25.119c6.874,6.496,16.243,9.665,25.649,8.674l343.296-52.224
		c8.026-1.569,13.734-8.722,13.483-16.896V93.867C435.2,56.149,407.04,25.6,372.395,25.6z M426.667,136.533
		c-0.014,4.707-3.826,8.52-8.533,8.533H273.067c-9.053,0.002-17.737-3.593-24.139-9.995c-6.402-6.402-9.997-15.085-9.995-24.139
		V102.4c-0.002-9.053,3.593-17.737,9.995-24.139c6.402-6.402,15.085-9.997,24.139-9.995h119.467
		c9.053-0.002,17.737,3.593,24.139,9.995s9.997,15.085,9.995,24.139V136.533z"/>
	<path style="fill:#FFE100;" d="M383.659,25.6H188.416c-66.389,0-120.149,61.098-120.149,136.533v63.146
		c0,20.737,16.128,36.694,34.219,33.793l328.277-52.224c7.862-1.721,13.34-8.856,12.971-16.896V93.867
		C443.734,56.149,416.854,25.6,383.659,25.6z M426.667,136.533c-0.014,4.707-3.826,8.52-8.533,8.533H273.067
		c-9.053,0.002-17.737-3.593-24.139-9.995c-6.402-6.402-9.997-15.085-9.995-24.139V102.4c-0.002-9.053,3.593-17.737,9.995-24.139
		c6.402-6.402,15.085-9.997,24.139-9.995h119.467c9.053-0.002,17.737,3.593,24.139,9.995s9.997,15.085,9.995,24.139V136.533z"/>
	<g>
		<path d="M76.792,267.958c-23.56-0.007-42.656-19.107-42.658-42.667v-3.425c0-4.713,3.821-8.533,8.533-8.533
			s8.533,3.821,8.533,8.533v3.425c-0.001,7.409,3.209,14.454,8.799,19.316c5.591,4.862,13.013,7.063,20.35,6.034l373.1-52.233
			c4.204-0.609,7.329-4.202,7.35-8.45V93.867c-0.038-32.974-26.759-59.695-59.733-59.733H179.2
			C111.644,34.203,55.744,86.706,51.446,154.125c-0.182,3.047-1.977,5.765-4.709,7.128c-2.732,1.363-5.983,1.162-8.526-0.525
			c-2.544-1.688-3.992-4.605-3.798-7.652C39.276,76.66,102.63,17.147,179.2,17.067h221.867c42.396,0.048,76.752,34.404,76.8,76.8
			v96.092c-0.051,12.746-9.43,23.531-22.046,25.35L82.717,267.542C80.754,267.817,78.774,267.956,76.792,267.958z"/>
		<path d="M42.667,196.267c-2.854,0.027-5.529-1.388-7.113-3.763c-1.584-2.374-1.863-5.388-0.742-8.012
			c0.433-1.035,1.04-1.988,1.795-2.817c0.829-0.753,1.78-1.359,2.813-1.792c2.069-0.9,4.419-0.9,6.487,0
			c1.044,0.413,2,1.021,2.817,1.792c0.753,0.83,1.359,1.783,1.792,2.817c1.124,2.624,0.847,5.638-0.737,8.013
			C48.197,194.88,45.521,196.295,42.667,196.267L42.667,196.267z"/>
		<path d="M76.8,230.4c-2.263,0.001-4.434-0.898-6.035-2.499c-1.6-1.6-2.499-3.771-2.499-6.035v-59.733
			C68.336,100.895,117.962,51.269,179.2,51.2c4.713,0,8.533,3.821,8.533,8.533s-3.821,8.533-8.533,8.533
			c-51.817,0.059-93.808,42.05-93.867,93.867v59.733c0.001,2.263-0.898,4.434-2.499,6.035C81.234,229.502,79.064,230.401,76.8,230.4
			z"/>
		<path d="M110.934,215.392c-2.263,0.001-4.434-0.898-6.035-2.499c-1.6-1.6-2.499-3.771-2.499-6.035v-44.725
			c0.048-42.396,34.404-76.752,76.8-76.8c4.713,0,8.533,3.821,8.533,8.533c0,4.713-3.821,8.533-8.533,8.533
			c-32.974,0.038-59.695,26.759-59.733,59.733v44.725c0.001,2.263-0.898,4.434-2.499,6.035
			C115.368,214.493,113.197,215.392,110.934,215.392z"/>
		<path d="M418.134,153.6H273.067c-19.557,0.055-36.617-13.264-41.308-32.25c-0.567-2.286-0.163-4.705,1.117-6.683
			c1.279-1.978,3.32-3.338,5.638-3.759l71.767-13.058c8.1-1.489,13.983-8.548,13.988-16.783v-12.8
			c-0.001-2.263,0.898-4.434,2.499-6.035c1.6-1.6,3.771-2.499,6.035-2.499h59.733c23.553,0.028,42.639,19.114,42.667,42.667v34.133
			C435.189,145.955,427.555,153.589,418.134,153.6z M252.204,125.758c4.782,6.777,12.568,10.798,20.862,10.775h145.067V102.4
			c-0.015-14.132-11.468-25.585-25.6-25.6h-51.2v4.267c-0.003,16.477-11.776,30.599-27.983,33.567L252.204,125.758z"/>
		<path d="M74.496,83.033c-2.263,0.001-4.434-0.898-6.035-2.499c-1.6-1.6-2.499-3.771-2.499-6.035V25.6
			c0-14.138,11.462-25.6,25.6-25.6s25.6,11.462,25.6,25.6v19.541c0,4.713-3.821,8.533-8.533,8.533s-8.533-3.821-8.533-8.533V25.6
			c0-4.713-3.821-8.533-8.533-8.533S83.03,20.887,83.03,25.6v48.9c0.001,2.263-0.898,4.434-2.499,6.035
			C78.93,82.135,76.76,83.034,74.496,83.033L74.496,83.033z"/>
	</g>
	<path style="fill:#00DA6C;" d="M332.8,68.267v12.8c-0.011,12.356-8.839,22.943-20.992,25.173l-71.765,13.056
		c-0.762-2.721-1.136-5.537-1.109-8.363V102.4c-0.002-9.053,3.593-17.737,9.995-24.139c6.402-6.402,15.085-9.997,24.139-9.995H332.8
		z"/>
	<g>
		<path d="M240.034,127.833c-3.795-0.003-7.132-2.513-8.187-6.158c-0.983-3.495-1.47-7.111-1.446-10.742V102.4
			c0.028-23.553,19.114-42.639,42.667-42.667H332.8c2.263-0.001,4.434,0.898,6.035,2.499c1.6,1.6,2.499,3.771,2.499,6.035v12.8
			c-0.003,16.477-11.776,30.599-27.983,33.567l-71.779,13.058C241.064,127.788,240.549,127.835,240.034,127.833z M273.067,76.8
			c-14.132,0.015-25.585,11.468-25.6,25.6v6.875l62.812-11.425c8.1-1.489,13.983-8.548,13.988-16.783V76.8H273.067z"/>
		<path d="M136.534,298.667H102.4c-14.132-0.015-25.585-11.468-25.6-25.6v-14.508c0-4.713,3.821-8.533,8.533-8.533
			s8.533,3.82,8.533,8.533v14.508c0.005,4.711,3.822,8.529,8.533,8.533h34.133c4.711-0.005,8.529-3.822,8.533-8.533V249
			c0-4.713,3.821-8.533,8.533-8.533c4.713,0,8.533,3.821,8.533,8.533v24.067C162.118,287.199,150.666,298.651,136.534,298.667
			L136.534,298.667z"/>
		<path d="M119.467,349.867c-2.263,0.001-4.434-0.898-6.035-2.499c-1.6-1.6-2.499-3.771-2.499-6.035v-51.2
			c0-4.713,3.821-8.533,8.533-8.533s8.533,3.821,8.533,8.533v51.2c0.001,2.263-0.898,4.434-2.499,6.035
			C123.901,348.968,121.73,349.867,119.467,349.867L119.467,349.867z"/>
		<path d="M136.534,512H102.4c-23.553-0.028-42.639-19.114-42.667-42.667V358.4c0.028-23.553,19.114-42.639,42.667-42.667h34.133
			c23.553,0.028,42.639,19.114,42.667,42.667v110.933C179.173,492.886,160.086,511.972,136.534,512L136.534,512z M102.4,332.8
			c-14.132,0.015-25.585,11.468-25.6,25.6v110.933c0.015,14.132,11.468,25.585,25.6,25.6h34.133
			c14.132-0.015,25.585-11.468,25.6-25.6V358.4c-0.015-14.132-11.468-25.585-25.6-25.6H102.4z"/>
		<path d="M119.467,512c-2.263,0.001-4.434-0.898-6.035-2.499c-1.6-1.6-2.499-3.771-2.499-6.035V332.8
			c0-4.713,3.821-8.533,8.533-8.533S128,328.087,128,332.8v170.667c0.001,2.263-0.898,4.434-2.499,6.035
			C123.901,511.102,121.73,512.001,119.467,512L119.467,512z"/>
	</g>
</g>
<g>
</g>
<g>
</g>
<g>
</g>
<g>
</g>
<g>
</g>
<g>
</g>
<g>
</g>
<g>
</g>
<g>
</g>
<g>
</g>
<g>
</g>
<g>
</g>
<g>
</g>
<g>
</g>
<g>
</g>
</svg>
