<svg height="480pt" viewBox="0 0 480 480.00012" width="480pt" xmlns="http://www.w3.org/2000/svg"><path d="m104 8h64c17.671875 0 32 14.328125 32 32v304h-128v-304c0-17.671875 14.328125-32 32-32zm0 0" fill="#3b73a5"/><g fill="#f9bb4b"><path d="m96 208h16v16h-16zm0 0"/><path d="m128 208h16v16h-16zm0 0"/><path d="m160 208h16v16h-16zm0 0"/><path d="m96 240h16v16h-16zm0 0"/><path d="m128 240h16v16h-16zm0 0"/><path d="m160 240h16v16h-16zm0 0"/><path d="m96 272h16v16h-16zm0 0"/><path d="m128 272h16v16h-16zm0 0"/><path d="m160 272h16v16h-16zm0 0"/></g><path d="m104 72h64v64h-64zm0 0" fill="#cfdfe8"/><path d="m152 168c0 8.835938-7.164062 16-16 16s-16-7.164062-16-16 7.164062-16 16-16 16 7.164062 16 16zm0 0" fill="#3b73a5"/><path d="m112 32h48v16h-48zm0 0" fill="#cfdfe8"/><path d="m200 280v64h-128v-64h-64v128h464v-128zm0 0" fill="#e8ecf2"/><path d="m24 408h432v32h-432zm0 0" fill="#7d8d9c"/><path d="m232 352h-192c-4.417969 0-8-3.582031-8-8v-32h16v24h176v-24h16v32c0 4.417969-3.582031 8-8 8zm0 0" fill="#ebb562"/><path d="m112 368h48v16h-48zm0 0" fill="#ebb562"/><path d="m176 368h48v16h-48zm0 0" fill="#ebb562"/><path d="m48 368h48v16h-48zm0 0" fill="#ebb562"/><path d="m440 344c0 17.671875-14.328125 32-32 32s-32-14.328125-32-32 14.328125-32 32-32 32 14.328125 32 32zm0 0" fill="#7d8d9c"/><path d="m296 328c0 8.835938-7.164062 16-16 16s-16-7.164062-16-16 7.164062-16 16-16 16 7.164062 16 16zm0 0" fill="#3b73a5"/><path d="m344 328c0 8.835938-7.164062 16-16 16s-16-7.164062-16-16 7.164062-16 16-16 16 7.164062 16 16zm0 0" fill="#e33e5c"/><path d="m440 472h-400l-16-32h432zm0 0" fill="#aabece"/><path d="m296 368h16v16h-16zm0 0" fill="#ebb562"/><path d="m328 368h16v16h-16zm0 0" fill="#ebb562"/><path d="m264 368h16v16h-16zm0 0" fill="#ebb562"/><path d="m280 128h-16c0-47.457031-38.398438-48-40-48v-16c.558594 0 56 .734375 56 64zm0 0" fill="#7fcac9"/><path d="m312 128h-16c0-79.097656-69.0625-80-72-80v-16c.878906 0 88 1.105469 88 96zm0 0" fill="#7fcac9"/><path d="m344 128h-16c0-110.726562-99.75-112-104-112v-16c1.199219 0 120 1.464844 120 128zm0 0" fill="#7fcac9"/><path d="m96 208h16v16h-16zm0 0"/><path d="m128 208h16v16h-16zm0 0"/><path d="m160 208h16v16h-16zm0 0"/><path d="m96 240h16v16h-16zm0 0"/><path d="m128 240h16v16h-16zm0 0"/><path d="m160 240h16v16h-16zm0 0"/><path d="m96 272h16v16h-16zm0 0"/><path d="m128 272h16v16h-16zm0 0"/><path d="m160 272h16v16h-16zm0 0"/><path d="m176 144v-80h-80v80zm-64-64h48v48h-48zm0 0"/><path d="m112 168c0 13.253906 10.746094 24 24 24s24-10.746094 24-24-10.746094-24-24-24-24 10.746094-24 24zm24-8c4.417969 0 8 3.582031 8 8s-3.582031 8-8 8-8-3.582031-8-8 3.582031-8 8-8zm0 0"/><path d="m112 32h48v16h-48zm0 0"/><path d="m472 272h-264v-232c-.027344-22.082031-17.917969-39.9726562-40-40h-64c-22.082031.0273438-39.972656 17.917969-40 40v232h-56c-4.417969 0-8 3.582031-8 8v128c0 4.417969 3.582031 8 8 8h8v24c.105469.929688.289062 1.851562.550781 2.753906.074219.175782.242188.726563.289063.796875l16 32c1.347656 2.722657 4.121094 4.445313 7.160156 4.449219h400c3.046875.015625 5.839844-1.699219 7.199219-4.425781l16-32c.050781-.09375.21875-.644531.289062-.796875.25-.910156.421875-1.839844.511719-2.777344v-24h8c4.417969 0 8-3.582031 8-8v-128c0-4.417969-3.582031-8-8-8zm-392-232c0-13.253906 10.746094-24 24-24h64c13.253906 0 24 10.746094 24 24v296h-112zm355.054688 424h-390.109376l-8-16h406.109376zm12.945312-32h-416v-16h416zm16-32h-448v-112h48v48h-16v-24h-16v32c0 4.417969 3.582031 8 8 8h192c4.417969 0 8-3.582031 8-8v-32h-16v24h-16v-48h256zm0 0"/><path d="m112 368h48v16h-48zm0 0"/><path d="m176 368h48v16h-48zm0 0"/><path d="m48 368h48v16h-48zm0 0"/><path d="m408 384c22.089844 0 40-17.910156 40-40s-17.910156-40-40-40-40 17.910156-40 40c.027344 22.082031 17.917969 39.972656 40 40zm0-64c3.5625.015625 7.078125.835938 10.28125 2.398438l-15.9375 15.9375 11.3125 11.3125 15.945312-15.929688c1.5625 3.203125 2.382813 6.71875 2.398438 10.28125 0 13.253906-10.746094 24-24 24s-24-10.746094-24-24 10.746094-24 24-24zm0 0"/><path d="m280 352c13.253906 0 24-10.746094 24-24s-10.746094-24-24-24-24 10.746094-24 24 10.746094 24 24 24zm0-32c4.417969 0 8 3.582031 8 8s-3.582031 8-8 8-8-3.582031-8-8 3.582031-8 8-8zm0 0"/><path d="m328 352c13.253906 0 24-10.746094 24-24s-10.746094-24-24-24-24 10.746094-24 24 10.746094 24 24 24zm0-32c4.417969 0 8 3.582031 8 8s-3.582031 8-8 8-8-3.582031-8-8 3.582031-8 8-8zm0 0"/><path d="m296 368h16v16h-16zm0 0"/><path d="m328 368h16v16h-16zm0 0"/><path d="m264 368h16v16h-16zm0 0"/><path d="m224 80c1.601562 0 40 .542969 40 48h16c0-63.265625-55.441406-64-56-64zm0 0"/><path d="m224 48c2.9375 0 72 .902344 72 80h16c0-94.894531-87.121094-96-88-96zm0 0"/><path d="m328 128h16c0-126.535156-118.800781-128-120-128v16c4.25 0 104 1.273438 104 112zm0 0"/></svg>