<?xml version="1.0" encoding="iso-8859-1"?>
<!-- Generator: Adobe Illustrator 21.0.0, SVG Export Plug-In . SVG Version: 6.00 Build 0)  -->
<svg xmlns="http://www.w3.org/2000/svg" xmlns:xlink="http://www.w3.org/1999/xlink" version="1.1" id="Capa_1" x="0px" y="0px" viewBox="0 0 513.313 513.313" style="enable-background:new 0 0 513.313 513.313;" xml:space="preserve" width="512" height="512">
<g>
	<path style="fill:#E93234;" d="M449.167,469.904H64.146c-19.658,0-37.408-11.765-45.066-29.87L8.421,414.835   c-3.231-7.638,2.376-16.098,10.67-16.098h475.132c8.293,0,13.9,8.46,10.67,16.098l-10.659,25.199   C486.576,458.139,468.826,469.904,449.167,469.904z"/>
	<path style="fill:#D6252E;" d="M462.314,442.904H50.999c-13.981,0-27.053-5.219-36.647-14.047l4.727,11.176   c7.658,18.105,25.408,29.87,45.066,29.87h385.021c19.658,0,37.408-11.765,45.066-29.87l4.727-11.176   C489.367,437.685,476.294,442.904,462.314,442.904z"/>
	<g>
		<path style="fill:#78777E;" d="M122.234,501.624H87.439c-9.098,0-16.473-7.375-16.473-16.473v-15.247h67.74v15.247    C138.707,494.249,131.332,501.624,122.234,501.624z"/>
		<path style="fill:#78777E;" d="M425.874,501.624h-34.795c-9.097,0-16.472-7.375-16.472-16.473v-15.247h67.74v15.247    C442.347,494.249,434.972,501.624,425.874,501.624z"/>
	</g>
	<path style="fill:#67676B;" d="M70.966,469.904v15.247c0,0.207,0.023,0.408,0.031,0.613h67.678   c0.008-0.205,0.031-0.406,0.031-0.613v-15.247H70.966z"/>
	<path style="fill:#67676B;" d="M374.607,469.904v15.247c0,0.207,0.023,0.408,0.031,0.613h67.678   c0.008-0.205,0.031-0.406,0.031-0.613v-15.247H374.607z"/>
	<rect x="41.146" y="368.444" style="fill:#78777E;" width="431.021" height="30.293"/>
	<path style="fill:#E0E0E0;" d="M256.657,11.689L256.657,11.689c-130.929,0-237.067,106.138-237.067,237.067v96.237   c0,12.951,10.499,23.45,23.45,23.45h427.233c12.951,0,23.45-10.499,23.45-23.45v-96.237   C493.724,117.828,387.585,11.689,256.657,11.689z M147.416,116.227c0,0,37.883-51.554,109.241-51.554   s109.241,51.554,109.241,51.554H147.416z"/>
	<g>
		<path style="fill:#C4C4C4;" d="M470.273,341.444H43.04c-12.951,0-23.45-10.499-23.45-23.45v27c0,12.951,10.499,23.45,23.45,23.45    h427.233c12.951,0,23.45-10.499,23.45-23.45v-27C493.724,330.945,483.225,341.444,470.273,341.444z"/>
	</g>
	<g>
		<g>
			<path style="fill:#78777E;" d="M227.732,308.793V190.035c0-9.236-7.487-16.723-16.723-16.723H92.251L227.732,308.793z"/>
			<path style="fill:#78777E;" d="M70.966,194.597v118.757c0,9.236,7.487,16.723,16.723,16.723h118.757L70.966,194.597z"/>
		</g>
		<g>
			<path style="fill:#78777E;" d="M442.347,308.793V190.035c0-9.236-7.487-16.723-16.723-16.723H306.866L442.347,308.793z"/>
			<path style="fill:#78777E;" d="M285.581,194.597v118.757c0,9.236,7.487,16.723,16.723,16.723h118.757L285.581,194.597z"/>
		</g>
	</g>
	<polygon style="fill:#67676B;" points="92.251,173.311 227.732,308.793 227.732,272.793 128.251,173.311  "/>
	<path style="fill:#67676B;" d="M87.689,303.077c-9.236,0-16.723-7.487-16.723-16.723v27c0,9.236,7.487,16.723,16.723,16.723   h118.757l-27-27H87.689z"/>
	<polygon style="fill:#67676B;" points="306.866,173.311 442.347,308.793 442.347,272.793 342.866,173.311  "/>
	<path style="fill:#67676B;" d="M302.304,303.077c-9.236,0-16.723-7.487-16.723-16.723v27c0,9.236,7.487,16.723,16.723,16.723   h118.757l-27-27H302.304z"/>
	<g>
		<path d="M227.734,316.292c0.966,0,1.941-0.187,2.869-0.571c2.803-1.16,4.63-3.896,4.63-6.929V190.034    c0-13.356-10.867-24.223-24.224-24.223H92.251c-3.034,0-5.768,1.827-6.929,4.63c-1.161,2.803-0.519,6.028,1.626,8.174    l135.481,135.48C223.864,315.53,225.782,316.292,227.734,316.292z M220.232,290.686L110.358,180.812h100.651    c5.086,0,9.224,4.138,9.224,9.223V290.686z"/>
		<path d="M68.096,187.668c-2.803,1.16-4.63,3.895-4.63,6.929v118.757c0,13.357,10.866,24.224,24.223,24.224h118.757    c3.034,0,5.768-1.827,6.929-4.63c1.161-2.803,0.519-6.028-1.626-8.174l-135.48-135.48    C74.125,187.149,70.898,186.506,68.096,187.668z M78.466,212.703L188.34,322.577H87.689c-5.085,0-9.223-4.138-9.223-9.224V212.703    z"/>
		<path d="M442.348,316.292c0.966,0,1.941-0.187,2.869-0.571c2.803-1.16,4.63-3.896,4.63-6.929V190.034    c0-13.356-10.867-24.223-24.223-24.223H306.866c-3.034,0-5.768,1.827-6.929,4.63c-1.161,2.803-0.519,6.028,1.626,8.174    l135.481,135.48C438.479,315.53,440.397,316.292,442.348,316.292z M434.847,290.686L324.972,180.812h100.651    c5.085,0,9.223,4.138,9.223,9.223V290.686z"/>
		<path d="M282.711,187.668c-2.803,1.16-4.63,3.895-4.63,6.929v118.757c0,13.357,10.866,24.224,24.223,24.224h118.757    c3.034,0,5.768-1.827,6.929-4.63c1.161-2.803,0.519-6.028-1.626-8.174l-135.481-135.48    C288.739,187.149,285.513,186.506,282.711,187.668z M293.081,212.703l109.874,109.874H302.304c-5.085,0-9.223-4.138-9.223-9.224    V212.703z"/>
		<path d="M256.657,57.173c-74.3,0-113.646,52.383-115.285,54.612c-1.675,2.279-1.925,5.306-0.648,7.828    c1.277,2.524,3.864,4.113,6.692,4.113h218.482c2.828,0,5.415-1.59,6.692-4.113c1.277-2.522,1.026-5.549-0.648-7.828    C370.303,109.556,330.956,57.173,256.657,57.173z M164.678,108.727c15.508-14.364,46.782-36.554,91.979-36.554    s76.47,22.19,91.978,36.554H164.678z"/>
		<path d="M510.131,399.778c-3.545-5.348-9.492-8.541-15.908-8.541h-14.556v-16.755c12.487-3.987,21.557-15.696,21.557-29.489    v-96.237c0-91.005-50.042-173.94-130.597-216.442c-3.663-1.932-8.201-0.529-10.133,3.134c-1.933,3.664-0.53,8.2,3.133,10.134    c75.621,39.897,122.597,117.75,122.597,203.175v96.237c0,8.795-7.155,15.95-15.95,15.95H130.33c-4.142,0-7.5,3.357-7.5,7.5    c0,4.143,3.358,7.5,7.5,7.5h334.336v15.293H48.646v-15.293h51.684c4.142,0,7.5-3.357,7.5-7.5c0-4.143-3.358-7.5-7.5-7.5H43.04    c-8.795,0-15.95-7.155-15.95-15.95v-96.237c0-61.319,23.879-118.969,67.238-162.328c43.36-43.359,101.009-67.238,162.329-67.238    c27.688,0,54.752,4.874,80.439,14.485c3.877,1.45,8.201-0.517,9.653-4.396c1.452-3.879-0.517-8.201-4.396-9.652    C314.978,9.383,286.146,4.19,256.657,4.19c-65.326,0-126.742,25.439-172.935,71.632C37.529,122.014,12.09,183.43,12.09,248.756    v96.237c0,13.792,9.07,25.502,21.556,29.489v16.755H19.091c-6.416,0-12.363,3.193-15.908,8.541    c-3.545,5.349-4.169,12.069-1.67,17.979l10.659,25.199c8.763,20.717,28.847,34.168,51.294,34.436v7.76    c0,13.219,10.754,23.973,23.973,23.973h34.795c13.218,0,23.972-10.754,23.972-23.973v-7.747h163.518c4.142,0,7.5-3.358,7.5-7.5    c0-4.143-3.358-7.5-7.5-7.5H64.146c-16.682,0-31.66-9.928-38.159-25.292l-10.659-25.199c-1.127-2.663,0.883-5.676,3.762-5.676    h475.132c2.88,0,4.889,3.013,3.762,5.676l-10.658,25.199c-6.498,15.364-21.476,25.292-38.159,25.292H339.724    c-4.142,0-7.5,3.357-7.5,7.5c0,4.142,3.358,7.5,7.5,7.5h27.382v7.747c0,13.219,10.754,23.973,23.972,23.973h34.795    c13.218,0,23.972-10.754,23.972-23.973v-7.76c22.447-0.267,42.532-13.718,51.295-34.436l10.658-25.199    C514.299,411.847,513.675,405.126,510.131,399.778z M131.206,485.151c0,4.947-4.025,8.973-8.972,8.973H87.439    c-4.948,0-8.973-4.025-8.973-8.973v-7.747h52.74V485.151z M425.874,494.123h-34.795c-4.947,0-8.972-4.025-8.972-8.973v-7.747    h52.74v7.747C434.846,490.098,430.822,494.123,425.874,494.123z"/>
	</g>
</g>















</svg>
